<svg xmlns="http://www.w3.org/2000/svg" viewBox="0 0 32 32" fill="none">
  <!-- Background with subtle pattern -->
  <defs>
    <linearGradient id="mainGradient" x1="0%" y1="0%" x2="100%" y2="100%">
      <stop offset="0%" style="stop-color:#9C4F4B;stop-opacity:1" />
      <stop offset="50%" style="stop-color:#B8AEA8;stop-opacity:1" />
      <stop offset="100%" style="stop-color:#C4A698;stop-opacity:1" />
    </linearGradient>
    <pattern id="dots" x="0" y="0" width="8" height="8" patternUnits="userSpaceOnUse">
      <circle cx="4" cy="4" r="1" fill="#FFF6F6" opacity="0.1"/>
    </pattern>
  </defs>
  
  <!-- Main background -->
  <circle cx="16" cy="16" r="16" fill="url(#mainGradient)"/>
  
  <!-- Abstract book/education symbol -->
  <path d="M10 8C10 6.89543 10.8954 6 12 6H20C21.1046 6 22 6.89543 22 8V24C22 25.1046 21.1046 26 20 26H12C10.8954 26 10 25.1046 10 24V8Z" 
        fill="#FFF6F6" 
        opacity="0.9"/>
  
  <!-- Book pages -->
  <path d="M12 10H20M12 14H20M12 18H20M12 22H18" 
        stroke="#9C4F4B" 
        stroke-width="1.5" 
        stroke-linecap="round"/>
  
  <!-- Decorative elements -->
  <circle cx="16" cy="12" r="1" fill="#9C4F4B" opacity="0.6"/>
  <circle cx="16" cy="16" r="1" fill="#9C4F4B" opacity="0.6"/>
  <circle cx="16" cy="20" r="1" fill="#9C4F4B" opacity="0.6"/>
  
  <!-- Subtle pattern overlay -->
  <circle cx="16" cy="16" r="16" fill="url(#dots)"/>
</svg> 